<?xml version="1.0" encoding="utf-8"?>
<!-- Generator: Adobe Illustrator 15.1.0, SVG Export Plug-In . SVG Version: 6.00 Build 0)  -->
<!DOCTYPE svg PUBLIC "-//W3C//DTD SVG 1.1//EN" "http://www.w3.org/Graphics/SVG/1.1/DTD/svg11.dtd">
<svg version="1.1" id="Layer_1" xmlns="http://www.w3.org/2000/svg" xmlns:xlink="http://www.w3.org/1999/xlink" x="0px" y="0px"
	 width="268px" height="57px" viewBox="0 0 268 57" style="enable-background:new 0 0 268 57;" xml:space="preserve">
<style type="text/css">
<![CDATA[
	.st0{fill:#C6C6C5;}
	.st1{fill:#FFFFFF;}
	.st2{fill:#0089FF;}
	.st3{fill:#00AFFF;}
]]>
</style>
<path class="st3" d="M193.1,2.3l1.3,0.6c0.1,0.1,0.2,0.1,0.2,0.2c0,0.2-0.1,0.3-0.4,0.4c-0.4,1-0.8,1.8-1.2,2.5v10.5h-1.4V8.3
	c-0.4,0.5-0.8,1.1-1.2,1.6l-1.1-1.1c0.8-1,1.5-2,2.1-3C192,4.8,192.6,3.7,193.1,2.3 M196.4,2.5l1.4,0.4c0.1,0,0.2,0.1,0.2,0.2
	c0,0.1-0.2,0.1-0.5,0.2c-0.2,0.6-0.3,1.1-0.5,1.6h5.2l0.4-0.2c0.1,0,0.3,0,0.4,0.1l0.8,0.5c0.1,0.1,0.2,0.1,0.2,0.2
	c0,0.2-0.1,0.3-0.4,0.4l-1.4,3l-1.3-0.4l1-2.4h-2.3v8.5c0,0.6-0.2,1-0.6,1.2c-0.3,0.3-1.2,0.4-2.5,0.4L196,15h1.4
	c0.5,0,0.8-0.1,0.8-0.4V6.3h-1.8c0,0.1-0.1,0.1-0.1,0.2c-0.4,0.8-0.9,1.5-1.5,2.2l-1.3-0.8c0.7-0.8,1.3-1.5,1.7-2.3
	C195.6,4.8,196,3.7,196.4,2.5 M195.5,9.2l1.3,0.6c0.1,0,0.2,0.1,0.2,0.2c0,0.1-0.1,0.2-0.2,0.2c-0.5,1.5-1,2.8-1.6,3.8l-1.4-0.6
	C194.5,12.3,195,10.9,195.5,9.2 M201.5,9.2c0.8,1,1.6,2.3,2.4,3.9l-1.4,0.9c-0.6-1.5-1.3-2.8-2-4L201.5,9.2z"/>
<path class="st3" d="M211.2,2.3l1.4,0.5c0.1,0.1,0.2,0.1,0.2,0.2c0,0.1-0.2,0.2-0.5,0.3c-0.1,0.4-0.2,0.8-0.3,1.2h3.9v1.3h-2.1
	c0,1.1,0,2-0.1,2.8h2.8v1.3H214c0.2,0.8,0.5,1.5,0.8,2.1c0.4,0.8,0.9,1.5,1.6,2.1l-1.4,1.1c-0.5-0.6-0.9-1.2-1.2-1.9
	c-0.2-0.4-0.4-0.9-0.6-1.5c-0.2,0.9-0.5,1.7-0.8,2.4c-0.4,0.9-1,1.7-1.8,2.4l-1.3-1.3c0.8-0.5,1.3-1.1,1.7-1.8
	c0.4-0.6,0.7-1.4,0.9-2.4c0.1-0.3,0.1-0.7,0.2-1.1h-2.9V8.5h3c0.1-0.8,0.1-1.8,0.1-2.8h-0.8c0,0,0,0.1,0,0.1
	c-0.3,0.7-0.7,1.3-1.1,1.9l-1.3-0.8c0.5-0.7,0.9-1.3,1.2-2C210.7,4.3,211,3.4,211.2,2.3 M217,4.2h5.8v11.3h-1.4v-1.5h-3v2H217V4.2z
	 M218.5,12.7h3V5.5h-3V12.7z"/>
<path class="st3" d="M235.6,3.5c-0.1,0-0.3,0-0.5,0.1c-0.5,0.2-0.9,0.4-1.4,0.5v2.5h3.6c0-1.3-0.1-2.8-0.1-4.5l1.5,0.2
	c0.2,0,0.3,0.1,0.3,0.2c0,0.1-0.1,0.3-0.4,0.5c0,1.3,0,2.5,0.1,3.6h4.2v1.3h-4.2c0.1,0.9,0.1,1.6,0.2,2.2c0.1,0.4,0.2,0.9,0.2,1.2
	c0.6-0.8,1.2-1.6,1.7-2.5l1.2,0.6c0.1,0.1,0.2,0.2,0.2,0.3c0,0.1-0.1,0.2-0.4,0.2c-0.8,1.2-1.6,2.2-2.2,2.9c0.1,0.3,0.2,0.6,0.4,0.9
	c0.4,0.8,0.7,1.1,1,1.1c0.1,0,0.2-0.1,0.3-0.3c0.1-0.2,0.4-0.8,0.7-2l1.2,1c-0.3,0.9-0.6,1.6-0.9,2.1c-0.4,0.6-0.8,0.8-1.2,0.8
	c-0.4,0-0.8-0.2-1.2-0.7c-0.5-0.5-0.9-1.1-1.3-2c-0.7,0.6-1.6,1.2-2.7,1.8l-1.1-1.1c1.2-0.6,2.1-1.2,2.8-1.8
	c0.1-0.1,0.3-0.2,0.4-0.4c-0.3-0.9-0.5-2-0.7-3.2c0-0.4-0.1-0.9-0.1-1.4h-3.7v2.4c0.8-0.2,1.6-0.4,2.4-0.7v1.3
	c-0.6,0.2-1.4,0.5-2.4,0.7V15c0,0.5-0.2,0.9-0.7,1.2c-0.4,0.3-1.3,0.4-2.8,0.4l-0.6-1.4h1.7c0.6,0,0.9-0.1,0.9-0.4v-2.7
	c-0.8,0.2-1.7,0.5-2.7,0.8c-0.1,0.2-0.2,0.3-0.3,0.3c-0.1,0-0.2-0.1-0.2-0.3l-0.4-1.5c1.2-0.2,2.4-0.4,3.6-0.7V7.9h-3.2V6.7h3.2V4.6
	c-0.7,0.2-1.5,0.3-2.3,0.4l-0.9-1.3c1.2-0.1,2.2-0.2,3.1-0.5c0.8-0.2,1.7-0.5,2.9-1l1,1c0.1,0.1,0.1,0.1,0.1,0.2
	c0,0.1-0.1,0.1-0.2,0.1L235.6,3.5z M240.5,3.1c0.8,0.4,1.5,1,2.2,1.6l-1,0.9c-0.7-0.7-1.4-1.2-2.1-1.6L240.5,3.1z"/>
<path class="st3" d="M250.3,2.3l1.4,0.5c0.1,0.1,0.2,0.1,0.2,0.2c0,0.1-0.2,0.2-0.5,0.3c-0.1,0.4-0.2,0.8-0.3,1.2h3.9v1.3h-2.1
	c0,1.1,0,2-0.1,2.8h2.8v1.3h-2.5c0.2,0.8,0.5,1.5,0.8,2.1c0.4,0.8,1,1.5,1.6,2.1l-1.4,1.1c-0.5-0.6-0.8-1.2-1.2-1.9
	c-0.2-0.4-0.4-0.9-0.6-1.5c-0.2,0.9-0.5,1.7-0.8,2.4c-0.4,0.9-1,1.7-1.8,2.4l-1.3-1.3c0.8-0.5,1.3-1.1,1.7-1.8
	c0.4-0.6,0.7-1.4,0.9-2.4c0.1-0.3,0.2-0.7,0.2-1.1h-2.9V8.5h3c0.1-0.8,0.1-1.8,0.1-2.8h-0.8c0,0,0,0.1,0,0.1
	c-0.3,0.7-0.7,1.3-1.1,1.9l-1.3-0.8c0.5-0.7,0.9-1.3,1.2-2C249.8,4.3,250.1,3.4,250.3,2.3 M256.1,4.2h5.8v11.3h-1.4v-1.5h-3v2h-1.4
	V4.2z M257.6,12.7h3V5.5h-3V12.7z"/>
<path class="st2" d="M51,25.1c0,13.8-11.2,25-25,25c-13.8,0-25-11.2-25-25c0-13.8,11.2-25,25-25C39.8,0.1,51,11.3,51,25.1"/>
<path class="st1" d="M44.2,12.6c0,1.8-1.5,3.3-3.3,3.3c-1.8,0-3.3-1.5-3.3-3.3c0-1.8,1.5-3.3,3.3-3.3C42.7,9.3,44.2,10.8,44.2,12.6"
	/>
<path class="st2" d="M142.1,18.8V22h2.3l-3,12.8h-0.1l-4.2-15l0,0v0h-4.3v0l0,0l-4.4,15h0l-3-12.8h2.4v-3.1H118V22h1.1
	c0.4,0.1,0.9,0.4,1.1,0.7l4.6,17v0.1h0l0,0l0.1,0h5.9l3.8-12.4l3.4,12.4l0.1,0h6l4.3-17.1c0.2-0.4,0.8-0.7,1.2-0.7h1.3v-3.1H142.1z"
	/>
<path class="st3" d="M256,18.8V22h2.3l-3,12.8h-0.1l-4.2-15l0,0v0h-4.3v0l0,0l-4.4,15h0l-3-12.8h2.4v-3.1h-9.7V22h1.1
	c0.4,0.1,0.9,0.4,1.1,0.7l4.6,17v0.1h0l0,0l0.1,0h5.9l3.8-12.4l3.4,12.4l0.1,0h6l4.3-17.1c0.2-0.4,0.8-0.7,1.2-0.7h1.3v-3.1H256z"/>
<path class="st3" d="M160.3,36.4V22.3v-3.4h-7.5v3.4h1.6c0.4,0.1,0.8,0.4,0.9,0.9v12.1c0,0.6-0.5,1-1.1,1.1h-1.5v3.5h10v-3.5H160.3z
	"/>
<path class="st1" d="M44.6,36.3c-0.3-0.1-0.6-0.3-0.8-0.5V22.6v-3.8h-7.5v3.8h1.2c0.5,0,1,0.4,1.1,0.9V33c-1,4-4.4,3.7-4.4,3.7
	c-2.6,0-3.1-2.2-3.1-3.3v-11v-0.6v-2.9h-7.5v3.5h1.3c0.6,0,1,0.5,1.1,1.1v11.6c0.8,6,6.5,5.4,6.5,5.4c3.9,0,6-1.9,7-3.2v2.6h6.9
	v-3.5H44.6z"/>
<path class="st2" d="M69.8,36.3l-4-7.3c1.7-1.4,3.1-3.5,3.4-6.7h2.2v-3.5h-8.8v3.5h1.6c0.3,0.1,0.6,0.4,0.6,0.8
	c-0.2,1.6-1.4,4.6-6.3,4.8V13.5l0,0V9.8H51v3.8h1.5c0.6,0,1,0.5,1.1,1.1v20.6c0,0.6-0.5,1-1.1,1.1h-1.8v3.5h10.4v-3.5h-2.6v-4.7
	c0.5,0,1.5-0.1,2.7-0.4l4.9,8.5v0h6.3v-3.5H69.8z"/>
<path class="st3" d="M183.7,36.3l-4-7.3c1.7-1.4,3.1-3.5,3.4-6.7h2.2v-3.5h-8.8v3.5h1.6c0.3,0.1,0.6,0.4,0.6,0.8
	c-0.2,1.6-1.4,4.6-6.3,4.8V13.5V9.8h-7.5v3.8h1.5c0.6,0,1,0.5,1.1,1.1v20.6c0,0.6-0.5,1-1.1,1.1h-1.8v3.5H175v-3.5h-2.6v-4.7
	c0.5,0,1.5-0.1,2.7-0.4l4.9,8.5v0h6.3v-3.5H183.7z"/>
<path class="st2" d="M94.2,36.4V24.1c0,0-0.2-6-6.4-6c0,0-3.7-0.3-6.4,2.9v-2.2h-7.5v3.4h2c0.4,0.1,0.8,0.4,0.9,0.9v12.1
	c0,0.6-0.5,1.1-1.1,1.1h-1.8v3.5h10.4v-3.5h-2.6V25.8l0,0c0,0,0.7-3.9,4.3-3.9c0,0,2.9-0.2,3.3,3.9v9.4c0,0.6-0.5,1.1-1.1,1.1h-1.5
	v3.5h10.1v-3.5H94.2z"/>
<path class="st3" d="M208.3,36.4V24.1c0,0-0.2-6-6.4-6c0,0-3.7-0.3-6.4,2.9v-2.2h-7.5v3.4h2c0.4,0.1,0.8,0.4,0.9,0.9v12.1
	c0,0.6-0.5,1-1.1,1.1H188v3.5h10.4v-3.5h-2.6V25.8l0,0c0,0,0.7-3.9,4.3-3.9c0,0,2.9-0.2,3.3,3.9v9.4c0,0.6-0.5,1-1.1,1.1h-1.5v3.5
	h10.1v-3.5H208.3z"/>
<path class="st2" d="M115.5,21.9c-1.7-2.2-4.5-3.7-7.6-3.7c-3.1,0-5.9,1.4-7.6,3.6c-1.3,1.4-2.2,4.2-2.2,7.4c0,3.1,0.9,5.9,2.1,7.3
	c1.7,2.3,4.5,3.7,7.7,3.7c3.2,0,6-1.5,7.7-3.8c1.2-1.5,2.1-4.2,2.1-7.3C117.7,26.1,116.8,23.4,115.5,21.9 M112.2,33.4
	c-0.2,0.9-0.6,1.6-1,1.9c-0.8,0.9-2,1.5-3.3,1.5c-1.4,0-2.6-0.6-3.3-1.6c-0.4-0.3-0.7-1-0.9-1.8c-0.3-0.8-0.4-2.4-0.4-4.2
	c0-1.8,0.2-3.4,0.4-4.2c0.2-0.6,0.4-1.2,0.7-1.5c0.8-1.1,2.1-1.8,3.6-1.8c1.4,0,2.7,0.7,3.4,1.7c0.3,0.4,0.6,1,0.8,1.7
	c0.3,0.8,0.4,2.4,0.4,4.2C112.6,31.1,112.4,32.6,112.2,33.4"/>
<path class="st3" d="M229.5,21.9c-1.7-2.2-4.5-3.7-7.6-3.7c-3.1,0-5.9,1.4-7.6,3.6c-1.3,1.4-2.2,4.2-2.2,7.4c0,3.1,0.9,5.9,2.1,7.3
	c1.7,2.3,4.5,3.7,7.7,3.7c3.2,0,6-1.5,7.7-3.8c1.2-1.5,2.1-4.2,2.1-7.3C231.6,26.1,230.7,23.4,229.5,21.9 M226.1,33.4
	c-0.2,0.9-0.6,1.6-1,1.9c-0.8,0.9-2,1.5-3.3,1.5c-1.4,0-2.6-0.6-3.3-1.6c-0.4-0.3-0.7-1-0.9-1.8c-0.3-0.8-0.4-2.4-0.4-4.2
	c0-1.8,0.2-3.4,0.4-4.2c0.2-0.6,0.4-1.2,0.7-1.5c0.8-1.1,2.1-1.8,3.6-1.8c1.4,0,2.7,0.7,3.4,1.7c0.3,0.4,0.6,1,0.8,1.7
	c0.3,0.8,0.4,2.4,0.4,4.2C226.5,31.1,226.3,32.6,226.1,33.4"/>
<path class="st3" d="M160.5,12.6c0,1.8-1.5,3.2-3.2,3.2c-1.8,0-3.2-1.5-3.2-3.2c0-1.8,1.5-3.2,3.2-3.2
	C159,9.4,160.5,10.9,160.5,12.6"/>
<path class="st0" d="M55,55.1c-0.5-0.4-1-0.8-1.5-1.2c-0.5,0.7-1.4,1.5-2.7,2.5c-0.4-0.4-0.7-0.8-1-1.1c1.2-0.8,2.1-1.6,2.7-2.3
	l-1.1-1l-0.2,0.6L49.9,52c0.5-1.6,0.9-3.1,1.2-4.6H50v-1.4h1.4c0.2-1,0.3-1.9,0.4-2.9l1.5,0.1c-0.2,0.9-0.3,1.8-0.5,2.7h2.8v1.3
	c-0.2,2.3-0.6,4.1-1.2,5.4c0.6,0.4,1.1,0.9,1.6,1.4L55,55.1z M54.1,47.3h-1.6c-0.1,0.3-0.2,0.7-0.3,1.3c-0.2,0.9-0.3,1.5-0.5,1.9
	c0.1,0.1,0.3,0.2,0.5,0.3c0.2,0.2,0.5,0.4,1,0.8C53.7,50.6,54,49.2,54.1,47.3z M55.8,50.6v-1.5h3.3v-1.7l2.3-2.2h-5v-1.4h6.9v1.5
	L60.6,48v1.2h2.9v1.5h-2.9v3.9c0,1.2-0.6,1.8-1.9,1.8c-0.5,0-1.1,0.1-1.9,0.1c0,0,0-0.1-0.1-0.2c-0.1-0.6-0.2-1.1-0.2-1.3
	c0.5,0,1,0,1.6,0c0.6,0,0.9-0.3,0.9-0.8v-3.4H55.8z"/>
<path class="st0" d="M70.8,54v-1.2h6.5v-0.2l2-1.1h-5.5v-1.1h7.8v1.1L79,52.8h5.4V54h-5.7v0.8c0,1.1-0.5,1.6-1.6,1.6
	c-0.4,0-1.3,0.1-2.5,0.1c-0.1-0.6-0.2-1-0.3-1.2c0.3,0,1,0.1,2.1,0.1c0.6,0,0.9-0.2,0.8-0.7V54H70.8z M80,46.1v-0.8h2v-0.8h-2.2v-1
	h3.6v5.1h0.8v2.6h-1.4v-1.6H72.5v1.6h-1.4v-2.6h0.7v-4.9c1.3-0.2,2.3-0.4,3.1-0.6l0.5,1.1c-0.3,0.1-0.9,0.2-1.6,0.3
	c-0.3,0.1-0.4,0.1-0.5,0.1v0.7h2.1v0.8h-2.1V47h2.1v0.8h-2.1v0.8H82v-0.8h-2.1V47H82v-0.8H80z M75.5,45.2c0.5-0.2,0.9-0.4,1.3-0.7
	c-0.4-0.3-0.8-0.5-1.2-0.7l0.6-0.7c0.2,0.1,0.4,0.2,0.7,0.4c0.3,0.2,0.6,0.4,0.7,0.4c0.4-0.3,0.8-0.6,1.2-0.9l0.7,0.6
	c-0.1,0.1-0.3,0.2-0.5,0.3c-0.3,0.2-0.5,0.4-0.6,0.4c0.2,0.1,0.4,0.2,0.6,0.3c0.3,0.2,0.5,0.3,0.6,0.4L79,45.8l0.4,0.3
	c-0.3,0.3-0.7,0.6-1,0.8c0.1,0.1,0.3,0.2,0.5,0.3c0.3,0.2,0.5,0.4,0.7,0.4l-0.7,0.8c-0.5-0.3-0.9-0.7-1.2-1c-0.5,0.3-1.1,0.7-1.6,1
	c-0.2-0.3-0.3-0.6-0.5-0.8c0.5-0.2,0.9-0.5,1.3-0.7c-0.3-0.2-0.7-0.5-1.1-0.7l0.4-0.4l-0.1,0.1C75.9,45.6,75.7,45.4,75.5,45.2z
	 M77.6,45c-0.3,0.2-0.7,0.4-1.2,0.7c0.1,0.1,0.3,0.2,0.5,0.3c0.3,0.2,0.6,0.4,0.7,0.4c0.3-0.2,0.6-0.5,1-0.8
	C78.3,45.4,77.9,45.2,77.6,45z"/>
<path class="st0" d="M92,51.8l-0.3-1.1l0.6-0.1c0.5-0.7,1-1.5,1.4-2.3c-0.2-0.1-0.4-0.3-0.7-0.5c-0.8-0.6-1.3-1-1.7-1.3l0.7-0.8
	l0.5,0.3c0.5-1,1-2,1.4-2.9l1.3,0.4c-0.6,1.1-1.2,2.2-1.8,3.1c0.1,0.1,0.2,0.2,0.4,0.3c0.2,0.1,0.4,0.3,0.5,0.3
	c0.1-0.2,0.3-0.5,0.5-1c0.2-0.4,0.4-0.8,0.5-1l1.1,0.6c-0.5,0.8-1.3,2.1-2.5,3.9c-0.2,0.3-0.3,0.6-0.5,0.7c0.2,0,0.4,0,0.7-0.1
	c0.3,0,0.5,0,0.6-0.1l-0.4-1l0.9-0.3c0.5,1.1,0.8,2,1.1,2.6l-0.9,0.4l-0.3-0.7l-0.7,0.1v5.1h-1.1v-5h-0.3
	C92.7,51.7,92.3,51.7,92,51.8z M92.5,55.8l-0.9-0.2c0.3-1.2,0.4-2.3,0.5-3.1l0.8,0.1c0,0.6-0.2,1.4-0.3,2.3
	C92.6,55.4,92.5,55.7,92.5,55.8z M95.5,55.2c-0.1-0.4-0.3-1.2-0.6-2.1c0-0.2-0.1-0.4-0.1-0.5l0.8-0.2c0.1,0.3,0.2,0.7,0.4,1.3
	c0.2,0.6,0.3,1,0.3,1.3L95.5,55.2z M96.5,56.5V43.8h8.4v11c0,1-0.5,1.6-1.6,1.6c-0.2,0-0.4,0-0.7,0.1c-0.3,0-0.5,0-0.7,0
	c0-0.2-0.1-0.5-0.2-1c0-0.2-0.1-0.3-0.1-0.4c0.5,0,0.9,0.1,1.4,0.1c0.6,0,0.8-0.2,0.8-0.7V45h-5.9v11.5H96.5z M98.2,48.4v-1.1h1.1
	c-0.2-0.5-0.5-1-0.7-1.6l1.1-0.3c0.3,0.5,0.5,1.1,0.8,1.7l-0.5,0.1h0.8c0.4-0.8,0.7-1.4,0.8-1.8l1.1,0.2c-0.1,0.1-0.2,0.4-0.3,0.7
	c-0.2,0.4-0.3,0.8-0.5,1h1.1v1.1H98.2z M98.2,51v-1.1h1.8v-1.2h1.4v1.2h1.8V51h-3.1v1.5c0,0.3,0.2,0.5,0.6,0.4h2.2v1.1H100
	c-0.7,0-1-0.4-1.1-1.1v-2H98.2z"/>
<path class="st0" d="M122.9,49.8v-1.1h13.7v1.1h-7.1v6.8h-1.3v-1.1c-0.9,0.1-2,0.2-3.4,0.3c-0.7,0.1-1.2,0.1-1.7,0.2l-0.2-1.1
	l1.2-0.1v-5H122.9z M124.7,47.9v-4.2h10.2v4.2H124.7z M125.5,49.8v1h2.7v-1H125.5z M125.5,51.7v1h2.7v-1H125.5z M125.5,54.7
	c0.3,0,0.6,0,1.1-0.1c0.7,0,1.2-0.1,1.6-0.1v-1h-2.7V54.7z M126.2,44.7v0.8h7.1v-0.8H126.2z M126.2,46.2V47h7.1v-0.7H126.2z
	 M136,56.4c-1.2-0.4-2.1-0.8-2.9-1.4c-0.5,0.4-1.4,0.9-2.7,1.5c-0.2-0.3-0.4-0.7-0.7-1.2c0.9-0.3,1.7-0.6,2.3-1
	c-0.6-0.7-1.2-1.5-1.6-2.5l0.4-0.2h-0.7v-1.1h5.6v1.2c-0.5,1-1,1.9-1.6,2.6c0.7,0.4,1.5,0.7,2.4,0.9C136.4,55.6,136.2,56,136,56.4z
	 M134.4,51.6h-2.7c0.4,0.8,0.9,1.4,1.4,1.9C133.6,53,134.1,52.4,134.4,51.6z"/>
<path class="st0" d="M144.2,51.1c0-0.2-0.1-0.5-0.2-1c-0.1-0.4-0.2-0.7-0.2-0.9c1.2-1.8,2.3-3.9,3.1-6.1l1.5,0.3
	c-0.4,1.1-0.8,2.1-1.3,3.1v10h-1.5v-7.3c-0.1,0.1-0.3,0.4-0.5,0.6C144.7,50.4,144.4,50.8,144.2,51.1z M148.6,52.8v-1.3h3.3V50h1.6
	v1.4h3.3v1.3h-3.3v2h4V56h-9.5v-1.2h4v-2H148.6z M148.7,46.4v-1.3h3.2v-1.8h1.6v1.8h3.2v1.3h-3.2v1.8h3.7v1.3h-9.1v-1.3h3.7v-1.8
	H148.7z"/>
<path class="st0" d="M165.2,56.3v-11h1.5c0.1-0.4,0.3-1,0.5-1.7c0-0.2,0.1-0.4,0.1-0.5l1.6,0.2c-0.2,0.7-0.3,1.3-0.6,2h2.4v10.9
	h-1.4v-1h-2.7v1.1H165.2z M166.6,46.7v2.9h2.7v-2.9H166.6z M166.6,51v2.9h2.7V51H166.6z M172.8,56.2c-0.1-0.6-0.2-1-0.3-1.4
	c0.2,0,0.6,0,1,0c0.5,0,0.9,0.1,1.1,0.1c1,0,1.5-0.5,1.5-1.5c0-0.6,0.1-1.9,0.1-3.8c0-1.4,0.1-2.3,0.1-2.9h-3.1
	c-0.3,0.7-0.7,1.4-1,2.1c-0.1,0-0.2-0.1-0.3-0.2c-0.2-0.1-0.5-0.3-1-0.5c0.9-1.6,1.5-3.2,2-4.9l1.5,0.3c0,0.1-0.1,0.4-0.2,0.6
	c-0.2,0.5-0.3,0.9-0.5,1.2h4.1c-0.1,4.1-0.2,6.9-0.2,8.4c0,1.7-0.8,2.5-2.4,2.5C174.5,56.2,173.7,56.2,172.8,56.2z M174,52.5
	c-0.6-1-1.3-2-2.1-3l1.2-0.7c0.7,0.8,1.4,1.7,2.2,2.9L174,52.5z"/>
<path class="st0" d="M185.5,46.8v-1.2h5.1v1.2H185.5z M190.9,56.1c-0.2-0.4-0.5-0.8-0.8-1.2v1.5h-1.2v-0.7h-1.8v0.7h-1.2v-4.7h4.2
	v3.2c1.4-0.6,2.6-1.5,3.5-2.5h-2.8v-1.2h3.4V50h-2.9v-6.3h7.2V50h-2.9v1.2h3.6v1.2h-3.1c0.9,1.1,2,1.9,3.3,2.4
	c-0.1,0.1-0.3,0.3-0.5,0.7c-0.1,0.2-0.2,0.3-0.2,0.4c-1.4-0.7-2.4-1.5-3.1-2.5v3.2h-1.3v-3.2C193.5,54.2,192.4,55.2,190.9,56.1z
	 M185.9,48.7v-1.1h4.2v1.1H185.9z M185.9,50.8v-1.1h4.2v1.1H185.9z M186.2,44.7v-1.1h3.6v1.1H186.2z M187.1,52.8v1.8h1.8v-1.8H187.1
	z M192.5,44.9v1.4h1.7v-1.4H192.5z M192.5,47.4v1.4h1.7v-1.4H192.5z M197.2,44.9h-1.7v1.4h1.7V44.9z M195.5,47.4v1.4h1.7v-1.4H195.5
	z"/>
<path class="st0" d="M206.5,48.5v-1.3h1.8v-2c-0.5,0-1,0.1-1.6,0.1c0-0.5-0.1-0.9-0.2-1.3c1.7-0.1,3.3-0.2,4.7-0.3l0.2,1.3
	c0,0-0.1,0-0.2,0c-0.5,0.1-1,0.1-1.6,0.1v2.1h1.7v1.3h-1.7v1.2l0.1-0.1c0.2,0.1,0.5,0.4,0.9,0.7c0.5,0.4,0.8,0.6,1.1,0.8l-0.7,1.1
	c-0.2-0.1-0.4-0.3-0.6-0.6c-0.3-0.3-0.5-0.5-0.7-0.6v5.4h-1.4v-5.2c-0.4,1-0.9,2-1.5,2.7c-0.1-0.2-0.2-0.5-0.3-1
	c-0.1-0.2-0.2-0.4-0.2-0.5c0.9-1.2,1.6-2.6,2-4.1H206.5z M211.7,50.6c0-0.3,0-0.7-0.1-1.2c3.2-0.1,5.9-0.2,8-0.3l0.1,1.2
	c-0.2,0-0.5,0-0.9,0.1c-1,0.1-1.8,0.1-2.4,0.2V52h3v1.2h-3v1.6h3.7v1.1h-9.1v-1.1h3.9v-1.6h-3V52h3v-1.5c-0.3,0-0.9,0-1.6,0.1
	C212.6,50.6,212.1,50.6,211.7,50.6z M212.2,48.1v-4.2h7.1v4.2H212.2z M213.6,45.1v1.8h4.2v-1.8H213.6z"/>
<path class="st0" d="M227.7,51.8l-0.3-1.1l0.6-0.1c0.5-0.7,1-1.5,1.4-2.3c-0.2-0.1-0.4-0.3-0.7-0.5c-0.8-0.6-1.3-1-1.7-1.3l0.7-0.8
	l0.5,0.3c0.5-1,1-2,1.4-2.9l1.3,0.4c-0.6,1.1-1.2,2.2-1.8,3.1c0.1,0.1,0.2,0.2,0.4,0.3c0.2,0.1,0.4,0.3,0.5,0.3
	c0.1-0.2,0.3-0.5,0.5-1c0.2-0.4,0.4-0.8,0.5-1l1.1,0.6c-0.5,0.8-1.3,2.1-2.5,3.9c-0.2,0.3-0.3,0.6-0.5,0.7c0.2,0,0.4,0,0.7-0.1
	c0.3,0,0.5,0,0.6-0.1l-0.4-1l0.9-0.3c0.5,1.1,0.8,2,1.1,2.6l-0.9,0.4l-0.3-0.7l-0.7,0.1v5.1H229v-5h-0.3
	C228.3,51.7,228,51.7,227.7,51.8z M228.1,55.8l-0.9-0.2c0.3-1.2,0.4-2.3,0.5-3.1l0.8,0.1c0,0.6-0.2,1.4-0.3,2.3
	C228.2,55.4,228.2,55.7,228.1,55.8z M231.2,55.2c-0.1-0.4-0.3-1.2-0.6-2.1c0-0.2-0.1-0.4-0.1-0.5l0.8-0.2c0.1,0.3,0.2,0.7,0.4,1.3
	c0.2,0.6,0.3,1,0.3,1.3L231.2,55.2z M232.2,56.5V43.8h8.4v11c0,1-0.5,1.6-1.6,1.6c-0.2,0-0.4,0-0.7,0.1c-0.3,0-0.5,0-0.7,0
	c0-0.2-0.1-0.5-0.2-1c0-0.2-0.1-0.3-0.1-0.4c0.5,0,0.9,0.1,1.4,0.1c0.6,0,0.8-0.2,0.8-0.7V45h-5.9v11.5H232.2z M233.9,48.4v-1.1h1.1
	c-0.2-0.5-0.5-1-0.7-1.6l1.1-0.3c0.3,0.5,0.5,1.1,0.8,1.7l-0.5,0.1h0.8c0.4-0.8,0.7-1.4,0.8-1.8l1.1,0.2c-0.1,0.1-0.2,0.4-0.3,0.7
	c-0.2,0.4-0.3,0.8-0.5,1h1.1v1.1H233.9z M233.9,51v-1.1h1.8v-1.2h1.4v1.2h1.8V51h-3.1v1.5c0,0.3,0.2,0.5,0.6,0.4h2.2v1.1h-2.9
	c-0.7,0-1-0.4-1.1-1.1v-2H233.9z"/>
<path class="st0" d="M248.4,55.6l-0.3-1.5c0.9-0.1,1.9-0.2,2.9-0.3c0.2-0.6,0.4-1.5,0.6-2.6c0.3-1.5,0.6-2.6,0.7-3.3l1.4,0.3
	c-0.6,2.1-1.1,3.9-1.5,5.4l1.7-0.3c0,0.5,0,1,0,1.5C252.5,54.8,250.7,55.1,248.4,55.6z M248.3,47.2v-1.3h2.2v-2.6h1.5v2.6h2.2v1.3
	H248.3z M249.6,52.8c0-0.2-0.1-0.6-0.2-1c-0.3-1.6-0.5-2.8-0.7-3.6l1.2-0.2c0,0.1,0.1,0.4,0.2,0.7c0.4,1.6,0.7,2.8,0.8,3.8
	L249.6,52.8z M254.5,56.5v-6.8h2.4v-6.5h1.5v2.5h3.5V47h-3.5v2.7h2.9v6.8h-1.5v-0.9h-4v0.9H254.5z M255.9,51v3.4h4V51H255.9z"/>
<circle class="st0" cx="114.4" cy="50.1" r="1.6"/>
</svg>
